<svg width="24" height="24" viewBox="0 0 24 24" fill="none" xmlns="http://www.w3.org/2000/svg">
<path fill-rule="evenodd" clip-rule="evenodd" d="M17 1H7C3.68629 1 1 3.68629 1 7V17C1 20.3137 3.68629 23 7 23H8V24H7C3.13401 24 0 20.866 0 17V7C0 3.13401 3.13401 0 7 0H17C20.866 0 24 3.13401 24 7V17C24 20.866 20.866 24 17 24H9V23H17C20.3137 23 23 20.3137 23 17V7C23 3.68629 20.3137 1 17 1ZM6.08801 16.7C6.53601 16.94 7.04001 17.06 7.60001 17.06C8.13601 17.06 8.62401 16.944 9.06401 16.712C9.50401 16.472 9.84801 16.148 10.096 15.74C10.352 15.324 10.48 14.852 10.48 14.324C10.48 13.78 10.332 13.28 10.036 12.824C9.74001 12.368 9.28401 12.048 8.66801 11.864C8.77828 11.8158 8.88484 11.7593 8.98769 11.6948L8.48767 11.1948C8.46428 11.2103 8.44039 11.2254 8.41601 11.24C8.18401 11.376 7.92801 11.444 7.64801 11.444C7.52001 11.444 7.41201 11.488 7.32401 11.576C7.23601 11.664 7.19201 11.772 7.19201 11.9C7.19201 12.036 7.23601 12.148 7.32401 12.236C7.41201 12.324 7.52001 12.368 7.64801 12.368C8.00801 12.368 8.33201 12.452 8.62001 12.62C8.90801 12.78 9.13601 13.008 9.30401 13.304C9.47201 13.592 9.55601 13.932 9.55601 14.324C9.55601 14.876 9.38001 15.328 9.02801 15.68C8.67601 16.024 8.18801 16.196 7.56401 16.196C7.18801 16.196 6.84401 16.112 6.53201 15.944C6.22801 15.768 5.98801 15.536 5.81201 15.248C5.63601 14.952 5.54801 14.62 5.54801 14.252C5.54801 14.116 5.50801 14 5.42801 13.904C5.34801 13.808 5.24001 13.76 5.10401 13.76C4.96801 13.76 4.86001 13.808 4.78001 13.904C4.70001 14 4.66001 14.116 4.66001 14.252C4.66001 14.788 4.78801 15.268 5.04401 15.692C5.30001 16.116 5.64801 16.452 6.08801 16.7ZM9.12053 10.4134C9.17885 10.2547 9.20801 10.0862 9.20801 9.908C9.20801 9.484 9.06401 9.132 8.77601 8.852C8.48801 8.564 8.10401 8.42 7.62401 8.42C7.12001 8.42 6.70401 8.564 6.37601 8.852C6.04801 9.132 5.88401 9.48 5.88401 9.896C5.88401 10.032 5.84001 10.148 5.75201 10.244C5.67201 10.332 5.56801 10.376 5.44001 10.376C5.30401 10.376 5.19601 10.332 5.11601 10.244C5.03601 10.148 4.99601 10.036 4.99601 9.908C4.99601 9.468 5.10801 9.072 5.33201 8.72C5.56401 8.36 5.87601 8.08 6.26801 7.88C6.66001 7.672 7.11201 7.568 7.62401 7.568C8.08801 7.568 8.50401 7.672 8.87201 7.88C9.24801 8.08 9.54401 8.36 9.76001 8.72C9.98401 9.072 10.096 9.468 10.096 9.908C10.096 10.18 10.028 10.444 9.89201 10.7C9.83927 10.8055 9.77905 10.9069 9.71137 11.0042L9.12053 10.4134ZM12.3515 16.868C12.4395 16.956 12.5515 17 12.6875 17H14.8475C15.5355 17 16.1635 16.888 16.7315 16.664C17.3075 16.432 17.8035 16.108 18.2195 15.692C18.6355 15.268 18.9555 14.772 19.1795 14.204C19.4115 13.628 19.5275 12.996 19.5275 12.308C19.5275 11.62 19.4115 10.992 19.1795 10.424C18.9555 9.856 18.6355 9.364 18.2195 8.948C17.8035 8.524 17.3075 8.2 16.7315 7.976C16.1635 7.744 15.5355 7.628 14.8475 7.628H12.6875C12.5515 7.628 12.4395 7.672 12.3515 7.76C12.2635 7.848 12.2195 7.96 12.2195 8.096V14H13.1555V8.468H14.8475C15.5835 8.468 16.2315 8.632 16.7915 8.96C17.3595 9.288 17.8035 9.744 18.1235 10.328C18.4435 10.904 18.6035 11.564 18.6035 12.308C18.6035 13.052 18.4435 13.716 18.1235 14.3C17.8035 14.876 17.3595 15.332 16.7915 15.668C16.2315 15.996 15.5835 16.16 14.8475 16.16H13.1555V15H12.2195V16.532C12.2195 16.668 12.2635 16.78 12.3515 16.868Z" fill="black"/>
</svg>
