<svg width="24" height="24" viewBox="0 0 24 24" fill="none" xmlns="http://www.w3.org/2000/svg">
<path fill-rule="evenodd" clip-rule="evenodd" d="M17 1H7C3.68629 1 1 3.68629 1 7V17C1 20.3137 3.68629 23 7 23H8V24H7C3.13401 24 0 20.866 0 17V7C0 3.13401 3.13401 0 7 0H17C20.866 0 24 3.13401 24 7V17C24 20.866 20.866 24 17 24H9V23H17C20.3137 23 23 20.3137 23 17V7C23 3.68629 20.3137 1 17 1ZM9.06401 16.868C9.15201 16.956 9.25601 17 9.37601 17C9.51201 17 9.62401 16.956 9.71201 16.868C9.80001 16.78 9.84401 16.668 9.84401 16.532V14.756H10.792C10.92 14.756 11.028 14.716 11.116 14.636C11.204 14.548 11.248 14.452 11.248 14.348C11.248 14.188 11.204 14.076 11.116 14.012C11.028 13.948 10.92 13.916 10.792 13.916H9.84401V12.5511L8.93201 11.6391V13.916H5.40401L8.93201 9.332V10.2249L9.84401 11.1369V8.096C9.84401 7.96 9.80001 7.848 9.71201 7.76C9.63201 7.664 9.52801 7.616 9.40001 7.616C9.24001 7.616 9.11201 7.68 9.01601 7.808L4.26401 14.024C4.15201 14.168 4.13601 14.328 4.21601 14.504C4.30401 14.672 4.44401 14.756 4.63601 14.756H8.93201V16.532C8.93201 16.668 8.97601 16.78 9.06401 16.868ZM13.1015 16.868C13.1975 16.956 13.3095 17 13.4375 17C13.5655 17 13.6735 16.956 13.7615 16.868C13.8575 16.772 13.9055 16.66 13.9055 16.532V15H12.9695V16.532C12.9695 16.66 13.0135 16.772 13.1015 16.868ZM12.9695 14H13.9055V13.46L14.9735 12.38L18.2375 16.796C18.3255 16.932 18.4575 17 18.6335 17C18.8015 17 18.9255 16.916 19.0055 16.748C19.0935 16.58 19.0815 16.416 18.9695 16.256L15.6455 11.72L18.9335 8.432C19.0295 8.32 19.0775 8.204 19.0775 8.084C19.0855 7.956 19.0535 7.848 18.9815 7.76C18.9095 7.672 18.8015 7.628 18.6575 7.628C18.5215 7.628 18.3975 7.684 18.2855 7.796L13.9055 12.176V8.096C13.9055 7.968 13.8575 7.86 13.7615 7.772C13.6735 7.676 13.5655 7.628 13.4375 7.628C13.3095 7.628 13.1975 7.676 13.1015 7.772C13.0135 7.86 12.9695 7.968 12.9695 8.096V14Z" fill="black"/>
</svg>
