<svg width="24" height="24" viewBox="0 0 24 24" fill="none" xmlns="http://www.w3.org/2000/svg">
<path fill-rule="evenodd" clip-rule="evenodd" d="M17 1H7C3.68629 1 1 3.68629 1 7V17C1 20.3137 3.68629 23 7 23H8V24H7C3.13401 24 0 20.866 0 17V7C0 3.13401 3.13401 0 7 0H17C20.866 0 24 3.13401 24 7V17C24 20.866 20.866 24 17 24H9V23H17C20.3137 23 23 20.3137 23 17V7C23 3.68629 20.3137 1 17 1ZM4.28801 16.772C4.36801 16.924 4.50001 17 4.68401 17C4.78001 17 4.86401 16.976 4.93601 16.928C5.01601 16.88 5.07601 16.808 5.11601 16.712L5.92001 14.768H10.576L11.368 16.712C11.448 16.904 11.596 17 11.812 17C11.98 17 12.108 16.928 12.196 16.784C12.292 16.64 12.304 16.492 12.232 16.34L8.69201 7.952C8.60401 7.736 8.45601 7.628 8.24801 7.628C8.03201 7.628 7.88001 7.736 7.79201 7.952L6.86352 10.1564L7.54862 10.8415L8.24801 9.152L10.24 13.964H6.25601L7.13458 11.8417L6.44439 11.1515L4.26401 16.328C4.20001 16.472 4.20801 16.62 4.28801 16.772ZM13.7695 16.868C13.8575 16.956 13.9695 17 14.1055 17C14.2415 17 14.3535 16.956 14.4415 16.868C14.5295 16.78 14.5735 16.668 14.5735 16.532V15H13.6375V16.532C13.6375 16.668 13.6815 16.78 13.7695 16.868ZM13.6375 14H14.5735V13.328H16.3495C16.4215 13.328 16.4895 13.324 16.5535 13.316L18.7135 16.76C18.7615 16.84 18.8135 16.9 18.8695 16.94C18.9335 16.98 19.0175 17 19.1215 17C19.3375 17 19.4815 16.928 19.5535 16.784C19.6335 16.64 19.6135 16.472 19.4935 16.28L17.5255 13.124C18.0855 12.932 18.5335 12.608 18.8695 12.152C19.2055 11.688 19.3735 11.144 19.3735 10.52C19.3735 9.952 19.2415 9.452 18.9775 9.02C18.7215 8.58 18.3655 8.24 17.9095 8C17.4535 7.752 16.9335 7.628 16.3495 7.628H14.1055C13.9695 7.628 13.8575 7.672 13.7695 7.76C13.6815 7.848 13.6375 7.96 13.6375 8.096V14ZM16.3495 12.428H14.5735V8.528H16.3495C16.7575 8.528 17.1175 8.612 17.4295 8.78C17.7495 8.948 18.0015 9.184 18.1855 9.488C18.3695 9.784 18.4615 10.128 18.4615 10.52C18.4615 10.888 18.3695 11.216 18.1855 11.504C18.0015 11.792 17.7495 12.02 17.4295 12.188C17.1175 12.348 16.7575 12.428 16.3495 12.428Z" fill="black"/>
</svg>
