<svg width="24" height="24" viewBox="0 0 24 24" fill="none" xmlns="http://www.w3.org/2000/svg">
<path fill-rule="evenodd" clip-rule="evenodd" d="M14 0H8C3.58172 0 0 3.58172 0 8V16C0 20.4183 3.58172 24 8 24H16C20.4183 24 24 20.4183 24 16V8C24 3.58172 20.4183 0 16 0H15V1H16C19.866 1 23 4.13401 23 8V16C23 19.866 19.866 23 16 23H8C4.13401 23 1 19.866 1 16V8C1 4.13401 4.13401 1 8 1H14V0ZM16.3445 10.0929L12.7193 13.7181L12.2825 14.1549C12.2392 14.1983 12.1861 14.2261 12.1304 14.2383C12.0117 14.309 11.8558 14.2932 11.7536 14.1911L11.3168 13.7543L7.65551 10.093L7.21872 9.65615C7.09792 9.53536 7.09792 9.33952 7.21872 9.21872C7.33951 9.09793 7.53535 9.09793 7.65615 9.21872L8.09295 9.65552L11.7542 13.3168L12 13.5626L12.2819 13.2807L15.907 9.65551L16.3438 9.21872C16.4646 9.09792 16.6605 9.09792 16.7813 9.21872C16.9021 9.33951 16.9021 9.53535 16.7813 9.65615L16.3445 10.0929Z" fill="black"/>
</svg>
