<svg width="24" height="24" viewBox="0 0 24 24" fill="none" xmlns="http://www.w3.org/2000/svg">
<path fill-rule="evenodd" clip-rule="evenodd" d="M8 0C3.58172 0 0 3.58172 0 8V16C0 20.4183 3.58172 24 8 24H16V23H8C4.13401 23 1 19.866 1 16V8C1 4.13401 4.13401 1 8 1H16C19.866 1 23 4.13401 23 8V16C23 19.5265 20.3923 22.4439 17 22.9291V23.9381C20.9463 23.446 24 20.0796 24 16V8C24 3.58172 20.4183 0 16 0H8ZM11.8696 9.17147C11.9883 9.10079 12.1442 9.11654 12.2464 9.21872L16.7813 13.7536C16.9021 13.8744 16.9021 14.0702 16.7813 14.191C16.6605 14.3118 16.4646 14.3118 16.3438 14.191L12 9.8472L7.65615 14.1911C7.53535 14.3118 7.33951 14.3118 7.21872 14.1911C7.09792 14.0703 7.09792 13.8744 7.21872 13.7536L11.7175 9.25485C11.7608 9.2115 11.8139 9.1837 11.8696 9.17147Z" fill="black"/>
</svg>
