<svg width="20" height="24" viewBox="0 0 20 24" fill="none" xmlns="http://www.w3.org/2000/svg">
<path fill-rule="evenodd" clip-rule="evenodd" d="M5.59941 2.37C6.38153 1.81796 7.23017 1.37191 8.12308 1.0413C8.47045 0.912687 8.97831 1.12316 9.09179 1.71984L9.57263 4.24811C9.66694 4.74399 9.32586 5.41628 8.54794 5.90023C8.44238 5.9659 8.33861 6.03471 8.23677 6.10659C7.48719 6.63565 6.85958 7.31909 6.39616 8.11094C5.93274 8.90279 5.64424 9.78469 5.55008 10.6973C5.45591 11.61 5.55826 12.5322 5.85023 13.402C6.1422 14.2718 6.61704 15.069 7.2428 15.7399C7.86856 16.4109 8.63073 16.9401 9.47807 17.292C10.3254 17.6438 11.2383 17.8102 12.1553 17.7798C12.2798 17.7757 12.4041 17.7679 12.5279 17.7566C13.4403 17.6731 14.1179 18.0035 14.3419 18.4558L15.484 20.7621C15.7535 21.3064 15.4755 21.7807 15.1209 21.8877C14.2093 22.1628 13.2634 22.3192 12.3066 22.3509C10.7371 22.4029 9.17452 22.1182 7.72414 21.5159C6.33092 20.9374 5.07221 20.0787 4.02577 18.994C3.98808 18.9549 3.95149 18.9076 3.91709 18.8508C3.21568 17.6923 2.37311 16.1772 1.89056 14.7397C1.37249 13.1964 0.983201 11.8206 1.00053 10.3569H0.000481734C-0.0165769 11.9981 0.421752 13.5065 0.942551 15.0579C1.46177 16.6047 2.35245 18.1973 3.06167 19.3687C3.1314 19.4839 3.21259 19.5913 3.30606 19.6882C4.44763 20.8716 5.82077 21.8083 7.34065 22.4394C8.92289 23.0964 10.6275 23.407 12.3397 23.3503C13.3835 23.3158 14.4154 23.1452 15.4098 22.8451C16.4673 22.5259 16.8703 21.3082 16.3801 20.3184L15.2381 18.0121C14.7479 17.0222 13.5368 16.6601 12.4368 16.7608C12.3323 16.7703 12.2274 16.7769 12.1222 16.7803C11.3479 16.806 10.5771 16.6655 9.86157 16.3684C9.14608 16.0713 8.5025 15.6245 7.97411 15.0579C7.44573 14.4913 7.04478 13.8182 6.79824 13.0838C6.5517 12.3493 6.46528 11.5706 6.5448 10.8C6.62431 10.0293 6.86791 9.28467 7.25922 8.61604C7.65053 7.94741 8.18047 7.37032 8.81342 6.92358C8.89941 6.86288 8.98704 6.80478 9.07617 6.74933C10.0141 6.16587 10.7614 5.14639 10.555 4.06128L10.0742 1.533C9.8678 0.447882 8.8117 -0.28001 7.77586 0.103524C6.80178 0.464188 5.87598 0.950783 5.02276 1.553C3.62307 2.54093 2.45115 3.81711 1.5858 5.29573C1.02418 6.25538 0.600145 7.28585 0.323602 8.35688H1.35955C1.61246 7.46469 1.97789 6.60559 2.44887 5.80083C3.2421 4.44543 4.31636 3.2756 5.59941 2.37Z" fill="black"/>
<mask id="path-2-inside-1" fill="white">
<path d="M16.1041 12.4667C16.3134 12.6231 16.6136 12.5814 16.7353 12.3501C16.8935 12.0493 17.0002 11.7227 17.0497 11.3841C17.1221 10.8888 17.0698 10.3833 16.8975 9.91336C16.7253 9.4434 16.4386 9.02382 16.0633 8.6926C15.8067 8.46613 15.5143 8.28587 15.1991 8.15853C14.9568 8.06067 14.7007 8.22283 14.642 8.4774V8.4774C14.5833 8.73196 14.7459 8.9813 14.9804 9.09635C15.145 9.17707 15.2987 9.27968 15.4372 9.40191C15.6945 9.62901 15.8911 9.91669 16.0092 10.2389C16.1273 10.5611 16.1632 10.9077 16.1136 11.2473C16.0869 11.4301 16.0358 11.6077 15.9624 11.7757C15.8577 12.0151 15.8948 12.3104 16.1041 12.4667V12.4667Z"/>
</mask>
<path d="M16.1041 12.4667C16.3134 12.6231 16.6136 12.5814 16.7353 12.3501C16.8935 12.0493 17.0002 11.7227 17.0497 11.3841C17.1221 10.8888 17.0698 10.3833 16.8975 9.91336C16.7253 9.4434 16.4386 9.02382 16.0633 8.6926C15.8067 8.46613 15.5143 8.28587 15.1991 8.15853C14.9568 8.06067 14.7007 8.22283 14.642 8.4774V8.4774C14.5833 8.73196 14.7459 8.9813 14.9804 9.09635C15.145 9.17707 15.2987 9.27968 15.4372 9.40191C15.6945 9.62901 15.8911 9.91669 16.0092 10.2389C16.1273 10.5611 16.1632 10.9077 16.1136 11.2473C16.0869 11.4301 16.0358 11.6077 15.9624 11.7757C15.8577 12.0151 15.8948 12.3104 16.1041 12.4667V12.4667Z" stroke="black" stroke-width="2" mask="url(#path-2-inside-1)"/>
<mask id="path-3-inside-2" fill="white">
<path d="M18.027 13.012C18.2235 13.159 18.504 13.1196 18.631 12.9096C18.9493 12.3837 19.1601 11.798 19.2493 11.1866C19.3599 10.428 19.28 9.65384 19.0167 8.93408C18.7534 8.21432 18.3151 7.57173 17.7414 7.06447C17.279 6.6557 16.7406 6.34522 16.1587 6.1499C15.926 6.07178 15.6864 6.22303 15.6313 6.46224V6.46224C15.5762 6.70121 15.7265 6.93707 15.9571 7.02042C16.3961 7.17906 16.8025 7.41962 17.1544 7.73069C17.6175 8.14016 17.9713 8.65888 18.1839 9.23988C18.3964 9.82089 18.4609 10.4458 18.3716 11.0581C18.3037 11.5238 18.1484 11.9709 17.9153 12.3765C17.7933 12.5887 17.831 12.8653 18.027 13.012V13.012Z"/>
</mask>
<path d="M18.027 13.012C18.2235 13.159 18.504 13.1196 18.631 12.9096C18.9493 12.3837 19.1601 11.798 19.2493 11.1866C19.3599 10.428 19.28 9.65384 19.0167 8.93408C18.7534 8.21432 18.3151 7.57173 17.7414 7.06447C17.279 6.6557 16.7406 6.34522 16.1587 6.1499C15.926 6.07178 15.6864 6.22303 15.6313 6.46224V6.46224C15.5762 6.70121 15.7265 6.93707 15.9571 7.02042C16.3961 7.17906 16.8025 7.41962 17.1544 7.73069C17.6175 8.14016 17.9713 8.65888 18.1839 9.23988C18.3964 9.82089 18.4609 10.4458 18.3716 11.0581C18.3037 11.5238 18.1484 11.9709 17.9153 12.3765C17.7933 12.5887 17.831 12.8653 18.027 13.012V13.012Z" stroke="black" stroke-width="2" mask="url(#path-3-inside-2)"/>
</svg>
