<svg width="17" height="24" viewBox="0 0 17 24" fill="none" xmlns="http://www.w3.org/2000/svg">
<path fill-rule="evenodd" clip-rule="evenodd" d="M5.59941 2.37C6.38153 1.81796 7.23017 1.37191 8.12308 1.0413C8.47045 0.912687 8.97831 1.12316 9.09179 1.71984L9.57263 4.24811C9.66694 4.74399 9.32586 5.41628 8.54794 5.90023C8.44238 5.9659 8.33861 6.03471 8.23677 6.10659C7.48719 6.63565 6.85958 7.31909 6.39616 8.11094C5.93274 8.90279 5.64424 9.78469 5.55008 10.6973C5.45591 11.61 5.55826 12.5322 5.85023 13.402C6.1422 14.2718 6.61704 15.069 7.2428 15.7399C7.86856 16.4109 8.63073 16.9401 9.47807 17.292C10.3254 17.6438 11.2383 17.8102 12.1553 17.7798C12.2798 17.7757 12.4041 17.7679 12.5279 17.7566C13.4403 17.6731 14.1179 18.0035 14.3419 18.4558L15.484 20.7621C15.7535 21.3064 15.4755 21.7807 15.1209 21.8877C14.2093 22.1628 13.2634 22.3192 12.3066 22.3509C10.7371 22.4029 9.17452 22.1182 7.72414 21.5159C6.33092 20.9374 5.07221 20.0787 4.02577 18.994C3.98808 18.9549 3.95149 18.9076 3.91709 18.8508C3.21568 17.6923 2.37311 16.1772 1.89056 14.7397C1.37249 13.1964 0.983201 11.8206 1.00053 10.3569H0.000481734C-0.0165769 11.9981 0.421752 13.5065 0.942551 15.0579C1.46177 16.6047 2.35245 18.1973 3.06167 19.3687C3.1314 19.4839 3.21259 19.5913 3.30606 19.6882C4.44763 20.8716 5.82077 21.8083 7.34065 22.4394C8.92289 23.0964 10.6275 23.407 12.3397 23.3503C13.3835 23.3158 14.4154 23.1452 15.4098 22.8451C16.4673 22.5259 16.8703 21.3082 16.3801 20.3184L15.2381 18.0121C14.7479 17.0222 13.5368 16.6601 12.4368 16.7608C12.3323 16.7703 12.2274 16.7769 12.1222 16.7803C11.3479 16.806 10.5771 16.6655 9.86157 16.3684C9.14608 16.0713 8.5025 15.6245 7.97411 15.0579C7.44573 14.4913 7.04478 13.8182 6.79824 13.0838C6.5517 12.3493 6.46528 11.5706 6.5448 10.8C6.62431 10.0293 6.86791 9.28467 7.25922 8.61604C7.65053 7.94741 8.18047 7.37032 8.81342 6.92358C8.89941 6.86288 8.98704 6.80478 9.07617 6.74933C10.0141 6.16587 10.7614 5.14639 10.555 4.06128L10.0742 1.533C9.8678 0.447882 8.8117 -0.28001 7.77586 0.103524C6.80178 0.464188 5.87598 0.950783 5.02276 1.553C3.62307 2.54093 2.45115 3.81711 1.5858 5.29573C1.02418 6.25538 0.600145 7.28585 0.323602 8.35688H1.35955C1.61246 7.46469 1.97789 6.60559 2.44887 5.80083C3.2421 4.44543 4.31636 3.2756 5.59941 2.37Z" fill="black"/>
</svg>
