<svg width="24" height="24" viewBox="0 0 24 24" fill="none" xmlns="http://www.w3.org/2000/svg">
<path d="M14.2646 11.967L19.2167 9.68142C19.2462 9.66785 19.281 9.68008 19.2955 9.70904C19.3106 9.73923 19.2978 9.77592 19.2672 9.79019L13.3078 12.5712C12.8332 12.7928 12.2773 12.7506 11.8415 12.46L11.0083 11.9046C10.094 11.2951 8.88887 11.354 8.03841 12.0498L5.94225 13.7649L6.85355 12.8536L7.85355 11.8536L8.65554 11.0516C9.17403 10.5331 9.99137 10.4654 10.5881 10.8916L11.7638 11.7315C12.4946 12.2534 13.4492 12.3434 14.2646 11.967Z" stroke="black"/>
<path fill-rule="evenodd" clip-rule="evenodd" d="M5 1H19C21.2091 1 23 2.79086 23 5V19C23 21.2091 21.2091 23 19 23H8V24H19C21.7614 24 24 21.7614 24 19V5C24 2.23858 21.7614 0 19 0H5C2.23858 0 0 2.23858 0 5V19C0 21.7614 2.23858 24 5 24H6V23H5C2.79086 23 1 21.2091 1 19V5C1 2.79086 2.79086 1 5 1Z" fill="black"/>
</svg>
