<svg width="25" height="24" viewBox="0 0 25 24" fill="none" xmlns="http://www.w3.org/2000/svg">
<path fill-rule="evenodd" clip-rule="evenodd" d="M8 0.173932C7.51848 0.0601887 7.01627 0 6.5 0C2.91015 0 0 2.91015 0 6.5C0 7.83383 0.401758 9.07383 1.09086 10.1056C2.13321 12.1053 4.21616 14.7565 6.32902 17.2065L7.03808 16.4974C6.93159 16.3738 6.82521 16.2496 6.71906 16.1251C4.73842 13.8014 2.90176 11.4163 1.97763 9.64336L1.95256 9.59527L1.92244 9.55017C1.33973 8.67771 1 7.63005 1 6.5C1 3.46243 3.46243 1 6.5 1C7.0199 1 7.52308 1.07215 8 1.20703V0.173932ZM9 1.59965C10.1548 2.18987 11.0739 3.17641 11.5773 4.38118L11.8438 5.01884C11.8546 5.03302 11.8652 5.04775 11.8754 5.06304C12.1725 5.50877 12.8275 5.50877 13.1246 5.06304C13.1348 5.04775 13.1454 5.03302 13.1562 5.01883L13.4227 4.38118C14.2532 2.39363 16.215 1 18.5 1C21.5376 1 24 3.46243 24 6.5C24 6.68453 23.9909 6.86663 23.9733 7.04594L23.961 7.17167L23.9803 7.29652C24.0109 7.49492 24.0066 7.72966 23.9643 8H24.9734C25.0097 7.69575 25.0096 7.40933 24.9685 7.14379C24.9893 6.93201 25 6.71725 25 6.5C25 2.91015 22.0899 0 18.5 0C16.2393 0 14.2482 1.15407 13.0837 2.90519C12.8562 3.24726 12.6603 3.61211 12.5 3.9956C12.3397 3.61211 12.1438 3.24726 11.9163 2.90519C11.2081 1.84029 10.1943 0.996196 9 0.498164V1.59965ZM11.2992 22.6385C10.2258 21.5241 8.62932 19.8311 6.98725 17.9625L7.69584 17.2539C9.33879 19.1257 10.9424 20.8265 12.0195 21.9447C12.3778 22.3168 12.9513 22.3264 13.321 21.9683C14.9844 20.3573 17.8376 17.4807 20.1931 14.5368C21.3725 13.0627 22.4037 11.6006 23.0992 10.292C23.3509 9.81851 23.5462 9.38749 23.6897 9H24.7474C23.3882 13.2739 16.9 19.8942 14.0167 22.6866C13.2488 23.4303 12.0408 23.4084 11.2992 22.6385ZM19.5417 4.11415C19.5277 4.11361 19.5137 4.11329 19.4998 4.11317C19.3382 4.11187 19.1784 4.13903 19.0275 4.19273C18.9962 4.20388 18.9637 4.21144 18.9311 4.21535C18.7944 4.23169 18.6545 4.18395 18.5795 4.06668C18.4866 3.92139 18.5284 3.72574 18.6864 3.65657C18.7297 3.63759 18.7737 3.62018 18.8182 3.60435C19.0038 3.53831 19.1986 3.49987 19.3964 3.49074C19.4527 3.48814 19.5092 3.48792 19.5658 3.4901C19.9736 3.50584 20.3668 3.64597 20.6927 3.89167C21.0186 4.13736 21.2615 4.47687 21.3888 4.86462C21.4065 4.91842 21.4218 4.9728 21.4348 5.0276C21.4804 5.2203 21.4971 5.4182 21.4847 5.61481C21.4817 5.66194 21.477 5.70899 21.4707 5.75588C21.4477 5.92679 21.2711 6.02084 21.1058 5.97149C20.9725 5.93167 20.8881 5.81023 20.8662 5.67436C20.8609 5.6419 20.8593 5.60861 20.8614 5.57541C20.8715 5.41556 20.8536 5.25447 20.8079 5.09952C20.804 5.08612 20.7998 5.07277 20.7955 5.05947C20.7079 4.7928 20.5408 4.5593 20.3167 4.39033C20.0926 4.22135 19.8222 4.12498 19.5417 4.11415Z" fill="black"/>
</svg>
