<svg width="24" height="25" viewBox="0 0 24 25" fill="none" xmlns="http://www.w3.org/2000/svg">
<path fill-rule="evenodd" clip-rule="evenodd" d="M14.5166 2.24656L21.5166 7.91268C22.4549 8.67214 23 9.81469 23 11.0218L23 12.6975H24L24 11.0218C24 9.51291 23.3186 8.08473 22.1458 7.13541L15.1458 1.46928C13.3114 -0.015558 10.6886 -0.015558 8.85419 1.46928L1.85419 7.13541C0.681384 8.08473 0 9.51291 0 11.0218V19.3528C0 22.1143 2.23857 24.3528 5 24.3528H19C21.7614 24.3528 24 22.1143 24 19.3528L24 14.8166H23L23 19.3528C23 21.562 21.2091 23.3528 19 23.3528H16V22.0854V18.3489V16.9343C16 16.858 15.9826 16.784 15.9505 16.7173C15.9822 16.6516 16 16.5779 16 16.5C16 16.2239 15.7761 16 15.5 16H9.5C9.22386 16 9 16.2239 9 16.5C9 16.7761 9.22386 17 9.5 17H15V17.6843V18.3503V22.0854V23.3528V23.5V24.3528H9V24V23.3528V23V20.0833V19.4167V19L8 19.4167V23V23.3528H5C2.79086 23.3528 1 21.562 1 19.3528V11.0218C1 9.81468 1.54511 8.67214 2.48335 7.91268L9.48335 2.24656C10.9509 1.05868 13.0491 1.05868 14.5166 2.24656Z" fill="black"/>
</svg>
