<svg width="24" height="24" viewBox="0 0 24 24" fill="none" xmlns="http://www.w3.org/2000/svg">
<path fill-rule="evenodd" clip-rule="evenodd" d="M12 23C18.0751 23 23 18.0751 23 12C23 10.2391 22.5862 8.57482 21.8506 7.09912L22.593 6.35677C23.491 8.03889 24 9.96 24 12C24 18.6274 18.6274 24 12 24C5.37258 24 0 18.6274 0 12C0 5.37258 5.37258 0 12 0C16.2182 0 19.9281 2.17645 22.0679 5.46765L21.3435 6.19205C19.4016 3.07471 15.9431 1 12 1C5.92487 1 1 5.92487 1 12C1 18.0751 5.92487 23 12 23ZM11.392 15.88C11.48 15.96 11.596 16 11.74 16C11.876 16 11.984 15.96 12.064 15.88C12.152 15.792 12.196 15.676 12.196 15.532V9.904C12.196 9.76 12.152 9.648 12.064 9.568C11.984 9.48 11.876 9.436 11.74 9.436C11.596 9.436 11.48 9.48 11.392 9.568C11.312 9.648 11.272 9.76 11.272 9.904V15.532C11.272 15.676 11.312 15.792 11.392 15.88ZM11.272 7.996C11.4 8.124 11.552 8.188 11.728 8.188C11.912 8.188 12.068 8.124 12.196 7.996C12.324 7.868 12.388 7.712 12.388 7.528C12.388 7.328 12.32 7.172 12.184 7.06C12.056 6.94 11.908 6.88 11.74 6.88C11.564 6.88 11.408 6.94 11.272 7.06C11.144 7.172 11.08 7.328 11.08 7.528C11.08 7.712 11.144 7.868 11.272 7.996Z" fill="black"/>
</svg>
