<svg width="24" height="24" viewBox="0 0 24 24" fill="none" xmlns="http://www.w3.org/2000/svg">
<path fill-rule="evenodd" clip-rule="evenodd" d="M23 12C23 18.0751 18.0751 23 12 23C5.92487 23 1 18.0751 1 12C1 5.92487 5.92487 1 12 1C15.9431 1 19.4016 3.07471 21.3435 6.19205L22.0679 5.46765C19.9281 2.17645 16.2182 0 12 0C5.37258 0 0 5.37258 0 12C0 18.6274 5.37258 24 12 24C18.6274 24 24 18.6274 24 12C24 9.96 23.491 8.03889 22.593 6.35677L21.8506 7.09912C22.5862 8.57482 23 10.2391 23 12Z" fill="black"/>
<rect x="12" y="6" width="1" height="8" rx="0.5" fill="black"/>
<rect x="12" y="15" width="1" height="1" rx="0.5" fill="black"/>
</svg>
