<svg width="19" height="25" viewBox="0 0 19 25" fill="none" xmlns="http://www.w3.org/2000/svg">
<path fill-rule="evenodd" clip-rule="evenodd" d="M17.9132 8.57688L17.9197 8.64677L17.9358 8.71508C17.9451 8.75446 17.9532 8.795 17.9599 8.83679C18.0475 9.38473 17.9932 10.0923 17.7816 10.95L17.7776 10.9661L17.7742 10.9824C17.6625 11.5096 17.4988 12.0176 17.2885 12.5007L17.2797 12.5211L17.2717 12.5418C16.0014 15.8561 13.3745 19.7847 11.4299 22.4465C10.7046 23.4393 9.27454 23.436 8.54657 22.427C7.08449 20.4006 5.20213 17.6485 3.8004 15.1042C3.09809 13.8295 2.53462 12.6392 2.20103 11.6378C2.06585 11.232 1.97945 10.8886 1.93012 10.603H0.917969C1.35488 13.7426 5.19998 19.4978 7.73561 23.0121C8.85697 24.5663 11.1068 24.5839 12.2374 23.0364C14.1862 20.3689 16.8838 16.3482 18.2055 12.8997C18.4423 12.3556 18.6267 11.7834 18.7525 11.1895C18.9817 10.2607 19.064 9.40808 18.9473 8.67881C18.9368 8.61306 18.924 8.54848 18.909 8.48504C18.4877 3.91729 14.6454 0.340576 9.96772 0.340576C5.15177 0.340576 1.22131 4.13184 0.998131 8.89258H1.99939C2.22158 4.68438 5.70416 1.34058 9.96772 1.34058C14.1239 1.34058 17.539 4.51887 17.9132 8.57688Z" fill="black"/>
<path fill-rule="evenodd" clip-rule="evenodd" d="M11.2505 12.7193C12.1793 12.25 12.8161 11.2871 12.8161 10.1754C12.8161 8.60224 11.5408 7.32697 9.96772 7.32697C8.39459 7.32697 7.11932 8.60224 7.11932 10.1754C7.11932 11.6031 8.16982 12.7856 9.54007 12.9919V14.0003C7.61592 13.7875 6.11932 12.1562 6.11932 10.1754C6.11932 8.04995 7.84231 6.32697 9.96772 6.32697C12.0931 6.32697 13.8161 8.04995 13.8161 10.1754C13.8161 11.851 12.7452 13.2765 11.2505 13.8048V12.7193Z" fill="black"/>
</svg>
