<svg width="24" height="24" viewBox="0 0 24 24" fill="none" xmlns="http://www.w3.org/2000/svg">
<rect x="4.35355" y="4.70709" width="0.5" height="10.8671" rx="0.25" transform="rotate(-45 4.35355 4.70709)" stroke="black" stroke-width="0.5"/>
<rect x="19.4579" y="4.35355" width="0.5" height="10.7845" rx="0.25" transform="rotate(45 19.4579 4.35355)" stroke="black" stroke-width="0.5"/>
<path fill-rule="evenodd" clip-rule="evenodd" d="M5 1H19C21.2091 1 23 2.79086 23 5V19C23 21.2091 21.2091 23 19 23H5C2.79086 23 1 21.2091 1 19H0C0 21.7614 2.23858 24 5 24H19C21.7614 24 24 21.7614 24 19V5C24 2.23858 21.7614 0 19 0H5C2.23858 0 0 2.23858 0 5V17H1V5C1 2.79086 2.79086 1 5 1Z" fill="black"/>
</svg>
