<svg width="25" height="25" viewBox="0 0 25 25" fill="none" xmlns="http://www.w3.org/2000/svg">
<path fill-rule="evenodd" clip-rule="evenodd" d="M8.91675 0.916748H10.1666V1.74969C10.1666 1.80595 10.1689 1.86166 10.1735 1.91675H8.91675C5.05075 1.91675 1.91675 5.05076 1.91675 8.91675V10.1735C1.86166 10.1689 1.80594 10.1666 1.74968 10.1666H0.916748V8.91675C0.916748 4.49848 4.49847 0.916748 8.91675 0.916748ZM0.916748 15.6669V16.9178C0.916748 21.3361 4.49848 24.9178 8.91675 24.9178H10.1666V23.9178H8.91675C5.05076 23.9178 1.91675 20.7838 1.91675 16.9178V15.66C1.86166 15.6646 1.80594 15.6669 1.74968 15.6669H0.916748ZM15.6669 24.9178H16.9178C21.3361 24.9178 24.9178 21.3361 24.9178 16.9178V15.6669H23.9178V16.9178C23.9178 20.7838 20.7838 23.9178 16.9178 23.9178H15.6669V24.9178ZM24.9178 8.91675V10.1666H23.9178V8.91675C23.9178 5.05075 20.7838 1.91675 16.9178 1.91675H15.66C15.6646 1.86166 15.6669 1.80595 15.6669 1.74969V0.916748H16.9178C21.3361 0.916748 24.9178 4.49847 24.9178 8.91675Z" fill="black"/>
</svg>
