<svg width="24" height="23" viewBox="0 0 24 23" fill="none" xmlns="http://www.w3.org/2000/svg">
<path fill-rule="evenodd" clip-rule="evenodd" d="M0.920428 9.59852C1.16598 9.80969 1.56409 9.80969 1.80964 9.59852L11.5909 1.1868C11.8365 0.975636 11.8365 0.633267 11.5909 0.4221C11.3454 0.210934 10.9473 0.210934 10.7017 0.4221L0.920428 8.83382C0.67488 9.04499 0.67488 9.38736 0.920428 9.59852ZM1.12313 20.7795C1.36867 20.9907 1.76678 20.9907 2.01233 20.7795L22.4641 3.19135C22.7096 2.98018 22.7096 2.63781 22.4641 2.42665C22.2185 2.21548 21.8204 2.21548 21.5749 2.42665L1.12313 20.0148C0.877578 20.226 0.877578 20.5683 1.12313 20.7795ZM13.8504 22.6574C13.6049 22.8686 13.2067 22.8686 12.9612 22.6574C12.7157 22.4463 12.7157 22.1039 12.9612 21.8927L22.7425 13.481C22.988 13.2698 23.3861 13.2698 23.6317 13.481C23.8772 13.6922 23.8772 14.0345 23.6317 14.2457L13.8504 22.6574Z" fill="black"/>
</svg>
