<svg width="23" height="24" viewBox="0 0 23 24" fill="none" xmlns="http://www.w3.org/2000/svg">
<path fill-rule="evenodd" clip-rule="evenodd" d="M13.4413 0.444633C13.2301 0.690181 13.2301 1.08829 13.4413 1.33384L21.853 11.1151C22.0642 11.3607 22.4065 11.3607 22.6177 11.1151C22.8289 10.8696 22.8289 10.4715 22.6177 10.2259L14.206 0.444633C13.9948 0.199085 13.6524 0.199085 13.4413 0.444633ZM2.2603 0.647331C2.04913 0.892878 2.04913 1.29099 2.2603 1.53654L19.8484 21.9883C20.0596 22.2338 20.402 22.2338 20.6131 21.9883C20.8243 21.7428 20.8243 21.3446 20.6131 21.0991L3.025 0.647331C2.81383 0.401783 2.47146 0.401783 2.2603 0.647331ZM0.382367 13.3746C0.1712 13.1291 0.1712 12.731 0.382366 12.4854C0.593533 12.2399 0.935902 12.2399 1.14707 12.4854L9.55879 22.2667C9.76995 22.5122 9.76996 22.9103 9.55879 23.1559C9.34762 23.4014 9.00525 23.4014 8.79409 23.1559L0.382367 13.3746Z" fill="black"/>
</svg>
