<svg width="24" height="24" viewBox="0 0 24 24" fill="none" xmlns="http://www.w3.org/2000/svg">
<path fill-rule="evenodd" clip-rule="evenodd" d="M9.80001 7.80001V3H10.8V7.80001C10.8 9.45686 9.45687 10.8 7.80001 10.8H0.5C0.223858 10.8 0 10.5762 0 10.3C0 10.0239 0.223857 9.80001 0.5 9.80001H7.80001C8.90458 9.80001 9.80001 8.90458 9.80001 7.80001ZM10.8 0.5V2H9.80001V0.5C9.80001 0.223858 10.0239 0 10.3 0C10.5762 0 10.8 0.223858 10.8 0.5ZM13.6204 0C13.393 0 13.2 0.172603 13.2 0.400014V6.80001C13.2 8.94208 14.8838 10.6909 17 10.7951V9.79345C15.4364 9.69053 14.2 8.38965 14.2 6.80001V0.400014C14.2 0.187581 14.0377 0 13.8253 0H13.6204ZM23.6 10.8H18V9.80001H23.6C23.8124 9.80001 24 9.96232 24 10.1748V10.3796C24 10.607 23.8274 10.8 23.6 10.8ZM23.5 13.2H16.2C14.5432 13.2 13.2 14.5432 13.2 16.2V21H14.2V16.2C14.2 15.0954 15.0954 14.2 16.2 14.2H23.5C23.7762 14.2 24 13.9762 24 13.7C24 13.4239 23.7762 13.2 23.5 13.2ZM14.2 22H13.2V23.5C13.2 23.7762 13.4239 24 13.7 24C13.9762 24 14.2 23.7762 14.2 23.5V22ZM0.5 14.2C0.223858 14.2 0 13.9762 0 13.7C0 13.4239 0.223858 13.2 0.5 13.2H6V14.2H0.5ZM7 14.2H7.80001C8.90458 14.2 9.80001 15.0954 9.80001 16.2V23.5C9.80001 23.7762 10.0239 24 10.3 24C10.5762 24 10.8 23.7762 10.8 23.5V16.2C10.8 14.5432 9.45686 13.2 7.80001 13.2H7V14.2Z" fill="black"/>
</svg>
