<svg width="22" height="23" viewBox="0 0 22 23" fill="none" xmlns="http://www.w3.org/2000/svg">
<path fill-rule="evenodd" clip-rule="evenodd" d="M7.13627 0.162746C3.90455 0.909414 1.69363 4.11753 2.3576 7.53856C2.57484 8.65783 2.48583 9.81499 2.1 10.8879L0.306679 15.8744C0.106155 16.432 0.100733 17.0412 0.291299 17.6022C0.651918 18.664 1.6487 19.3781 2.77001 19.3781H18.3552V18.3781H2.77001C2.07704 18.3781 1.46103 17.9368 1.23817 17.2806C1.1204 16.9339 1.12375 16.5574 1.24768 16.2129L3.04099 11.2263C3.48777 9.98396 3.59082 8.64406 3.33928 7.34803C2.79586 4.5481 4.53936 1.91753 7.13627 1.19482V0.162746ZM21.5003 18.1113C21.0124 18.8296 20.2306 19.2866 19.3751 19.3658V18.3592C19.8984 18.2847 20.3715 17.9934 20.6731 17.5494C21.0516 16.9922 21.1053 16.2758 20.8141 15.6685L18.8159 11.5013C18.1562 10.1256 17.957 8.57408 18.2477 7.07633C18.8591 3.92617 16.4462 1 13.2373 1H8.57372C8.43301 1 8.29378 1.00538 8.15618 1.01595V0.0134075C8.29405 0.00451825 8.43327 0 8.57372 0H13.2373C17.075 0 19.9606 3.4995 19.2294 7.26686C18.9796 8.55377 19.1508 9.88691 19.7176 11.069L21.7158 15.2361C22.1609 16.1645 22.0789 17.2596 21.5003 18.1113ZM13.8392 20.434C13.8975 20.2982 13.943 20.1586 13.9752 20.0167L13.9832 19.9799C13.9939 19.9292 14.0104 19.8801 14.0322 19.8338C14.1223 19.642 14.3015 19.5 14.5166 19.5C14.7836 19.5 15.0038 19.7177 14.962 19.9814C14.9516 20.0472 14.939 20.1126 14.9243 20.1777C14.9118 20.2329 14.8979 20.2879 14.8824 20.3425C14.8345 20.5116 14.7721 20.6777 14.6955 20.8394C14.6828 20.8664 14.6696 20.8932 14.6561 20.9198C14.4568 21.3128 14.1763 21.6705 13.8284 21.9749C13.7982 22.0013 13.7675 22.0273 13.7364 22.0528C13.385 22.3413 12.9766 22.572 12.5307 22.7336C12.5052 22.7428 12.4796 22.7519 12.4538 22.7606C11.9907 22.9187 11.4976 23 11 23C10.5024 23 10.0093 22.9187 9.54618 22.7606C9.52045 22.7519 9.49481 22.7428 9.46927 22.7336C9.02344 22.572 8.61504 22.3413 8.26358 22.0528C8.23246 22.0273 8.20179 22.0013 8.17158 21.9749C7.82373 21.6705 7.54324 21.3128 7.34392 20.9198C7.3304 20.8932 7.31725 20.8664 7.30449 20.8394C7.22795 20.6777 7.16555 20.5116 7.11762 20.3425C7.10214 20.2879 7.08816 20.2329 7.07571 20.1777C7.06102 20.1126 7.04846 20.0471 7.03802 19.9814C6.99618 19.7177 7.21643 19.5 7.48341 19.5C7.69854 19.5 7.87767 19.642 7.96785 19.8338C7.98959 19.8801 8.00615 19.9292 8.01682 19.9799L8.02484 20.0167C8.05702 20.1586 8.10247 20.2982 8.16084 20.434C8.1726 20.4614 8.18489 20.4886 8.1977 20.5157C8.33369 20.8029 8.52619 21.0668 8.76614 21.2954C8.79514 21.323 8.82484 21.3501 8.85521 21.3767C9.11728 21.606 9.42498 21.7912 9.76295 21.9233C9.78822 21.9332 9.81365 21.9427 9.83925 21.952C10.2073 22.0854 10.6017 22.154 11 22.154C11.3983 22.154 11.7928 22.0854 12.1608 21.952C12.1864 21.9427 12.2118 21.9332 12.2371 21.9233C12.575 21.7912 12.8827 21.606 13.1448 21.3767C13.1752 21.3501 13.2049 21.323 13.2339 21.2954C13.4738 21.0668 13.6663 20.8029 13.8023 20.5157C13.8151 20.4886 13.8274 20.4614 13.8392 20.434Z" fill="black"/>
</svg>
