<svg width="24" height="24" viewBox="0 0 24 24" fill="none" xmlns="http://www.w3.org/2000/svg">
<path fill-rule="evenodd" clip-rule="evenodd" d="M12 23C18.0751 23 23 18.0751 23 12C23 5.92487 18.0751 1 12 1C6.26162 1 1.54952 5.39401 1.04475 11.001C1.02992 11.0003 1.015 11 1 11H0.0410738C0.549225 4.84047 5.70934 0 12 0C18.6274 0 24 5.37258 24 12C24 18.6274 18.6274 24 12 24C5.70934 24 0.549225 19.1595 0.0410738 13H1C1.015 13 1.02992 12.9997 1.04475 12.999C1.54952 18.606 6.26162 23 12 23ZM11.75 15.5311L12 15.3868V16C12 16.1691 12.042 16.3285 12.1161 16.4681C10.8078 17.1024 9.25 16.1535 9.25 14.6651V10.335C9.25 8.79535 10.9167 7.8331 12.25 8.6029L16 10.768C17.3333 11.5378 17.3333 13.4623 16 14.2321L14 15.3868V15C14 14.7584 13.9143 14.5368 13.7716 14.3639L15.5 13.366C16.1667 12.9811 16.1667 12.0189 15.5 11.634L11.75 9.46893C11.0833 9.08403 10.25 9.56515 10.25 10.335V14.6651C10.25 15.4349 11.0833 15.916 11.75 15.5311Z" fill="black"/>
</svg>
