<svg width="24" height="24" viewBox="0 0 24 24" fill="none" xmlns="http://www.w3.org/2000/svg">
<path fill-rule="evenodd" clip-rule="evenodd" d="M10 19C14.9706 19 19 14.9706 19 10C19 5.02944 14.9706 1 10 1C5.02944 1 1 5.02944 1 10C1 12.0937 1.71491 14.0204 2.91392 15.5493L2.25846 16.3304C0.846925 14.6063 0 12.4021 0 10C0 4.47715 4.47715 0 10 0C15.5228 0 20 4.47715 20 10C20 15.5228 15.5228 20 10 20C7.2423 20 4.74532 18.8837 2.93626 17.0784L3.58171 16.3092C5.2145 17.97 7.48697 19 10 19ZM20.5 23C21.0095 23 21.4835 22.8476 21.8787 22.5858L22.5961 23.3032C22.0118 23.7408 21.2862 24 20.5 24C18.567 24 17 22.433 17 20.5C17 18.567 18.567 17 20.5 17C22.433 17 24 18.567 24 20.5C24 21.2862 23.7408 22.0118 23.3032 22.5961L22.5858 21.8787C22.8476 21.4835 23 21.0095 23 20.5C23 19.1193 21.8807 18 20.5 18C19.1193 18 18 19.1193 18 20.5C18 21.8807 19.1193 23 20.5 23Z" fill="black"/>
</svg>
