<svg width="23" height="25" viewBox="0 0 23 25" fill="none" xmlns="http://www.w3.org/2000/svg">
<path fill-rule="evenodd" clip-rule="evenodd" d="M13.726 3.55926L13.3453 2.38366C12.7477 0.53875 10.1375 0.53875 9.53989 2.38366L9.15915 3.55926C8.52414 5.51977 6.50351 6.67693 4.49118 6.23254L3.2966 5.96874C1.41708 5.55364 0.203218 7.89739 1.6268 9.19292C2.04172 9.57055 2.35483 10.0156 2.56613 10.495H1.43259C1.301 10.2927 1.14145 10.1033 0.953828 9.93255C-1.22745 7.94744 0.632295 4.35625 3.5123 4.99224L4.70688 5.2561C6.21604 5.58935 7.73154 4.72149 8.20773 3.25109L8.58859 2.07555C9.48496 -0.691841 13.4001 -0.691841 14.2966 2.07549L14.6773 3.25109C15.1537 4.72149 16.6692 5.58935 18.1784 5.2561L19.3729 4.99224C22.2529 4.35625 24.1126 7.94744 21.9314 9.93255C20.6765 11.0746 20.6765 13.0488 21.9314 14.1908C23.8589 15.9449 22.631 18.9531 20.3321 19.1907V18.1774C21.7558 17.9351 22.483 16.0449 21.2584 14.9304C19.5675 13.3917 19.5675 10.7317 21.2584 9.19292C22.682 7.89739 21.4682 5.55364 19.5886 5.96874L18.394 6.23254C16.3817 6.67693 14.3611 5.51977 13.726 3.55926ZM18.5543 17.9263V18.9504L18.1784 18.8674C16.6692 18.534 15.1537 19.402 14.6773 20.8722L14.2966 22.0478C13.4001 24.8152 9.48496 24.8152 8.58859 22.0478L8.20773 20.8722C7.73154 19.402 6.21604 18.534 4.70688 18.8674L3.5123 19.1312C0.632295 19.7671 -1.22745 16.176 0.953828 14.1908C1.58103 13.6199 1.89487 12.8412 1.89499 12.0624H2.89499C2.89487 13.1119 2.47214 14.1612 1.6268 14.9304C0.203218 16.2261 1.41708 18.5698 3.2966 18.1547L4.49118 17.8909C6.50351 17.4465 8.52414 18.6036 9.15915 20.5641L9.53989 21.7397C10.1375 23.5846 12.7477 23.5846 13.3453 21.7397L13.726 20.5641C14.3611 18.6036 16.3817 17.4465 18.394 17.8909L18.5543 17.9263ZM11.4427 14.1943C12.977 14.1943 13.9985 13.1241 13.9985 12.0615C13.9985 11.1334 13.2193 10.1996 12 9.97796V8.96691C13.6991 9.20251 14.9985 10.4983 14.9985 12.0615C14.9985 13.7917 13.4065 15.1943 11.4427 15.1943C9.47885 15.1943 7.88681 13.7917 7.88681 12.0615C7.88681 10.4633 9.24509 9.14471 11 8.95269V9.95947C9.71506 10.1418 8.88681 11.1047 8.88681 12.0615C8.88681 13.1241 9.90842 14.1943 11.4427 14.1943Z" fill="black"/>
</svg>
