<svg width="25" height="24" viewBox="0 0 25 24" fill="none" xmlns="http://www.w3.org/2000/svg">
<path fill-rule="evenodd" clip-rule="evenodd" d="M14.5651 1.5104L16.5171 7.58084H22.8557C24.788 7.58084 25.5969 10.0494 24.0393 11.193L18.8933 14.971L19.3684 16.4485H18.318L17.9413 15.2771C17.8096 14.8675 17.9547 14.4195 18.3015 14.1649L23.4475 10.3869C24.2263 9.81514 23.8218 8.58084 22.8557 8.58084H16.5171C16.0827 8.58084 15.698 8.30046 15.5651 7.88695L13.6131 1.81651C13.3156 0.891323 12.0066 0.891323 11.7091 1.81651L9.75721 7.88695C9.62425 8.30045 9.23956 8.58084 8.80521 8.58084H6.85776V7.58084H8.80521L10.7571 1.5104C11.3521 -0.339972 13.9701 -0.339974 14.5651 1.5104ZM4.53642 7.58084H2.46662C0.534227 7.58084 -0.27465 10.0494 1.28302 11.193L6.42894 14.971L4.46762 21.0706C3.87395 22.9169 5.99189 24.4427 7.55521 23.295L12.6611 19.5464L17.7671 23.295C19.3304 24.4427 21.4483 22.9169 20.8546 21.0706L20.1227 18.7942H19.0723L19.9027 21.3767C20.1995 22.2999 19.1405 23.0628 18.3589 22.4889L13.2529 18.7403C12.9008 18.4818 12.4215 18.4818 12.0693 18.7403L6.96342 22.4889C6.18175 23.0628 5.12278 22.2999 5.41962 21.3767L7.38094 15.2771C7.51265 14.8675 7.36758 14.4195 7.02074 14.1649L1.87482 10.3869C1.09598 9.81514 1.50042 8.58084 2.46662 8.58084H4.53642V7.58084Z" fill="black"/>
</svg>
