<svg width="22" height="23" viewBox="0 0 22 23" fill="none" xmlns="http://www.w3.org/2000/svg">
<path fill-rule="evenodd" clip-rule="evenodd" d="M17.6853 4.50209C17.7747 4.77888 17.5972 5.06337 17.3141 5.13008C17.0309 5.19679 16.7498 5.02021 16.6561 4.74485C16.4829 4.2361 16.235 3.75484 15.9198 3.31717C15.5019 2.73674 14.9737 2.24432 14.3654 1.86803C13.7571 1.49173 13.0807 1.23893 12.3747 1.12406C11.6687 1.00919 10.947 1.0345 10.2508 1.19853C9.55463 1.36257 8.89756 1.66213 8.31713 2.08011C7.7367 2.49808 7.24428 3.02629 6.86799 3.63457C6.49169 4.24285 6.23889 4.91929 6.12402 5.62526C6.04992 6.08066 6.03415 6.5426 6.07632 7.00002H18C20.2091 7.00002 22 8.79088 22 11V19C22 21.2092 20.2091 23 18 23H4C1.79086 23 0 21.2092 0 19V14H1V19C1 20.6569 2.34315 22 4 22H18C19.6569 22 21 20.6569 21 19V11C21 9.34316 19.6569 8.00002 18 8.00002H4C2.34315 8.00002 1 9.34316 1 11V13H0V11C0 8.79088 1.79086 7.00002 4 7.00002H5.01922C4.97954 6.4858 5.00112 5.96749 5.08433 5.45609C5.22142 4.61358 5.52311 3.80632 5.97218 3.0804C6.42124 2.35448 7.0089 1.72412 7.70158 1.22531C8.39426 0.726503 9.1784 0.36901 10.0092 0.173247C10.8401 -0.0225159 11.7014 -0.0527158 12.5439 0.0843717C13.3864 0.221459 14.1936 0.52315 14.9196 0.972217C15.6455 1.42129 16.2758 2.00894 16.7746 2.70162C17.1707 3.25159 17.4776 3.85921 17.6853 4.50209ZM12 15.9147C12.5826 15.7087 13 15.1531 13 14.5C13 13.6716 12.3284 13 11.5 13C10.6716 13 10 13.6716 10 14.5C10 15.1531 10.4174 15.7087 11 15.9147V16.95C9.85888 16.7184 9 15.7095 9 14.5C9 13.1193 10.1193 12 11.5 12C12.8807 12 14 13.1193 14 14.5C14 15.7095 13.1411 16.7184 12 16.95V15.9147Z" fill="black"/>
</svg>
