<svg width="24" height="24" viewBox="0 0 24 24" fill="none" xmlns="http://www.w3.org/2000/svg">
<path fill-rule="evenodd" clip-rule="evenodd" d="M17 1H7C3.68629 1 1 3.68629 1 7V17C1 20.3137 3.68629 23 7 23H8V24H7C3.13401 24 0 20.866 0 17V7C0 3.13401 3.13401 0 7 0H17C20.866 0 24 3.13401 24 7V17C24 20.866 20.866 24 17 24H9V23H17C20.3137 23 23 20.3137 23 17V7C23 3.68629 20.3137 1 17 1ZM7.87601 16.7C7.96401 16.9 8.10801 17 8.30801 17C8.50001 17 8.64001 16.9 8.72801 16.7L10.3017 13.0088L9.64006 12.3471L8.30801 15.536L5.12801 7.928C5.04001 7.728 4.89601 7.628 4.69601 7.628C4.50401 7.628 4.36801 7.696 4.28801 7.832C4.21601 7.96 4.22401 8.136 4.31201 8.36L7.87601 16.7ZM10.0567 11.3496L10.7244 12.0172L12.304 8.312C12.376 8.136 12.38 7.98 12.316 7.844C12.252 7.7 12.128 7.628 11.944 7.628C11.72 7.628 11.564 7.736 11.476 7.952L10.0567 11.3496ZM13.9219 16.868C14.0099 16.956 14.1219 17 14.2579 17C14.3939 17 14.5059 16.956 14.5939 16.868C14.6819 16.78 14.7259 16.668 14.7259 16.532V15H13.7899V16.532C13.7899 16.668 13.8339 16.78 13.9219 16.868ZM13.7899 14H14.7259V13.328H16.5019C16.5739 13.328 16.6419 13.324 16.7059 13.316L18.8659 16.76C18.9139 16.84 18.9659 16.9 19.0219 16.94C19.0859 16.98 19.1699 17 19.2739 17C19.4899 17 19.6339 16.928 19.7059 16.784C19.7859 16.64 19.7659 16.472 19.6459 16.28L17.6779 13.124C18.2379 12.932 18.6859 12.608 19.0219 12.152C19.3579 11.688 19.5259 11.144 19.5259 10.52C19.5259 9.952 19.3939 9.452 19.1299 9.02C18.8739 8.58 18.5179 8.24 18.0619 8C17.6059 7.752 17.0859 7.628 16.5019 7.628H14.2579C14.1219 7.628 14.0099 7.672 13.9219 7.76C13.8339 7.848 13.7899 7.96 13.7899 8.096V14ZM16.5019 12.428H14.7259V8.528H16.5019C16.9099 8.528 17.2699 8.612 17.5819 8.78C17.9019 8.948 18.1539 9.184 18.3379 9.488C18.5219 9.784 18.6139 10.128 18.6139 10.52C18.6139 10.888 18.5219 11.216 18.3379 11.504C18.1539 11.792 17.9019 12.02 17.5819 12.188C17.2699 12.348 16.9099 12.428 16.5019 12.428Z" fill="black"/>
</svg>
