<svg width="24" height="24" viewBox="0 0 24 24" fill="none" xmlns="http://www.w3.org/2000/svg">
<path fill-rule="evenodd" clip-rule="evenodd" d="M12 23C18.0751 23 23 18.0751 23 12C23 5.92487 18.0751 1 12 1C6.61669 1 2.13658 4.86707 1.18603 9.97485H0.170163C1.13266 4.3118 6.06279 0 12 0C18.6274 0 24 5.37258 24 12C24 18.6274 18.6274 24 12 24C5.37258 24 0 18.6274 0 12C0 11.6547 0.0145857 11.3128 0.0431748 10.9749H1.04714C1.01594 11.3124 1 11.6543 1 12C1 18.0751 5.92487 23 12 23ZM7.09331 7.54387C6.9689 7.41945 6.9689 7.21773 7.09331 7.09331C7.21773 6.9689 7.41945 6.9689 7.54387 7.09331L8.27605 7.82549V8.72661L7.09331 7.54387ZM8.74538 9.19594V8.29482L16.8565 16.4059H15.9554L8.74538 9.19594ZM16.4247 16.8753L17.4561 17.9067C17.5805 18.0311 17.7823 18.0311 17.9067 17.9067C18.0311 17.7823 18.0311 17.5805 17.9067 17.4561L17.3258 16.8753H16.4247ZM17.649 7.2446C17.5246 7.12019 17.3229 7.12019 17.1985 7.2446L13.0165 11.4266C12.8921 11.551 12.8921 11.7527 13.0165 11.8771C13.1409 12.0016 13.3426 12.0016 13.4671 11.8771L17.649 7.69516C17.7735 7.57074 17.7735 7.36902 17.649 7.2446ZM12.0172 12.9829C11.8928 12.8585 11.6911 12.8585 11.5666 12.9829L7.09339 17.4562C6.96897 17.5806 6.96897 17.7823 7.09339 17.9067C7.2178 18.0311 7.41952 18.0311 7.54394 17.9067L12.0172 13.4335C12.1416 13.309 12.1416 13.1073 12.0172 12.9829Z" fill="black"/>
</svg>
