<svg width="24" height="22" viewBox="0 0 24 22" fill="none" xmlns="http://www.w3.org/2000/svg">
<path fill-rule="evenodd" clip-rule="evenodd" d="M20.7065 0.186627C20.4382 0.0113533 20.057 0.0709867 19.855 0.319823L3.03138 21.0455C2.82939 21.2943 2.88317 21.6381 3.15149 21.8134C3.41981 21.9886 3.80108 21.929 4.00306 21.6802L20.8267 0.954546C21.0286 0.70571 20.9749 0.361901 20.7065 0.186627Z" fill="black"/>
<path fill-rule="evenodd" clip-rule="evenodd" d="M3.59644 1.04804C3.39764 0.804554 3.40619 0.417083 3.61554 0.182604C3.8249 -0.0518755 4.15577 -0.0445709 4.35457 0.198919L7.25211 3.74784L6.45308 4.54687L3.59644 1.04804ZM7.08874 5.32542L20.1545 21.3284C20.3533 21.5719 20.6842 21.5792 20.8936 21.3448C21.1029 21.1103 21.1115 20.7228 20.9127 20.4793L7.88777 4.52639L7.08874 5.32542Z" fill="black"/>
</svg>
